<mxfile host="Electron" modified="2024-03-22T15:57:15.572Z" agent="Mozilla/5.0 (Windows NT 10.0; Win64; x64) AppleWebKit/537.36 (KHTML, like Gecko) draw.io/23.1.5 Chrome/120.0.6099.109 Electron/28.1.0 Safari/537.36" etag="gzYXZK7fzFrm1bxt4SD6" version="23.1.5" type="device">
  <diagram name="PÃ¡gina-1" id="crdpbXy4SeWqtmTCbH5H">
    <mxGraphModel dx="2267" dy="860" grid="1" gridSize="10" guides="1" tooltips="1" connect="1" arrows="1" fold="1" page="1" pageScale="1" pageWidth="827" pageHeight="1169" math="0" shadow="0">
      <root>
        <mxCell id="0" />
        <mxCell id="1" parent="0" />
        <mxCell id="SBcckLtpFC7jZX_pPXCB-1" value="&lt;font style=&quot;vertical-align: inherit;&quot;&gt;&lt;font style=&quot;vertical-align: inherit;&quot;&gt;&lt;font style=&quot;vertical-align: inherit;&quot;&gt;&lt;font style=&quot;vertical-align: inherit;&quot;&gt;TIENDA DE ROPA&lt;/font&gt;&lt;/font&gt;&lt;/font&gt;&lt;/font&gt;" style="rounded=0;whiteSpace=wrap;html=1;" parent="1" vertex="1">
          <mxGeometry x="310" y="440" width="120" height="60" as="geometry" />
        </mxCell>
        <mxCell id="SBcckLtpFC7jZX_pPXCB-2" value="&lt;font style=&quot;vertical-align: inherit;&quot;&gt;&lt;font style=&quot;vertical-align: inherit;&quot;&gt;CLIENTE&lt;/font&gt;&lt;/font&gt;" style="ellipse;whiteSpace=wrap;html=1;" parent="1" vertex="1">
          <mxGeometry x="320" y="20" width="120" height="80" as="geometry" />
        </mxCell>
        <mxCell id="SBcckLtpFC7jZX_pPXCB-3" value="&lt;font style=&quot;vertical-align: inherit;&quot;&gt;&lt;font style=&quot;vertical-align: inherit;&quot;&gt;INVETARIO&lt;/font&gt;&lt;/font&gt;" style="ellipse;whiteSpace=wrap;html=1;" parent="1" vertex="1">
          <mxGeometry x="-20" y="250" width="120" height="80" as="geometry" />
        </mxCell>
        <mxCell id="SBcckLtpFC7jZX_pPXCB-4" value="&lt;font style=&quot;vertical-align: inherit;&quot;&gt;&lt;font style=&quot;vertical-align: inherit;&quot;&gt;PRODUCTO&lt;/font&gt;&lt;/font&gt;&lt;div&gt;&lt;font style=&quot;vertical-align: inherit;&quot;&gt;&lt;font style=&quot;vertical-align: inherit;&quot;&gt;&lt;br&gt;&lt;/font&gt;&lt;/font&gt;&lt;/div&gt;" style="ellipse;whiteSpace=wrap;html=1;" parent="1" vertex="1">
          <mxGeometry x="680" y="260" width="120" height="80" as="geometry" />
        </mxCell>
        <mxCell id="SBcckLtpFC7jZX_pPXCB-5" value="&lt;font style=&quot;vertical-align: inherit;&quot;&gt;&lt;font style=&quot;vertical-align: inherit;&quot;&gt;&lt;font style=&quot;vertical-align: inherit;&quot;&gt;&lt;font style=&quot;vertical-align: inherit;&quot;&gt;&lt;font style=&quot;vertical-align: inherit;&quot;&gt;&lt;font style=&quot;vertical-align: inherit;&quot;&gt;PROOV&lt;/font&gt;&lt;/font&gt;&lt;/font&gt;&lt;/font&gt;&lt;/font&gt;&lt;/font&gt;&lt;span style=&quot;background-color: initial;&quot;&gt;&lt;font style=&quot;vertical-align: inherit;&quot;&gt;&lt;font style=&quot;vertical-align: inherit;&quot;&gt;EDOR&lt;/font&gt;&lt;/font&gt;&lt;/span&gt;&lt;div&gt;&lt;span style=&quot;background-color: initial;&quot;&gt;&lt;font style=&quot;vertical-align: inherit;&quot;&gt;&lt;font style=&quot;vertical-align: inherit;&quot;&gt;&lt;br&gt;&lt;/font&gt;&lt;/font&gt;&lt;/span&gt;&lt;/div&gt;" style="ellipse;whiteSpace=wrap;html=1;" parent="1" vertex="1">
          <mxGeometry x="-50" y="600" width="120" height="80" as="geometry" />
        </mxCell>
        <mxCell id="SBcckLtpFC7jZX_pPXCB-6" value="&lt;font style=&quot;vertical-align: inherit;&quot;&gt;&lt;font style=&quot;vertical-align: inherit;&quot;&gt;VENTA&lt;/font&gt;&lt;/font&gt;" style="ellipse;whiteSpace=wrap;html=1;" parent="1" vertex="1">
          <mxGeometry x="680" y="600" width="120" height="80" as="geometry" />
        </mxCell>
        <mxCell id="SBcckLtpFC7jZX_pPXCB-7" value="&lt;div&gt;&lt;span style=&quot;background-color: initial;&quot;&gt;&lt;font style=&quot;vertical-align: inherit;&quot;&gt;&lt;font style=&quot;vertical-align: inherit;&quot;&gt;EMPLEADO&lt;/font&gt;&lt;/font&gt;&lt;/span&gt;&lt;/div&gt;" style="ellipse;whiteSpace=wrap;html=1;" parent="1" vertex="1">
          <mxGeometry x="310" y="730" width="120" height="80" as="geometry" />
        </mxCell>
        <mxCell id="SBcckLtpFC7jZX_pPXCB-15" value="" style="endArrow=classic;html=1;rounded=0;entryX=0.058;entryY=0.725;entryDx=0;entryDy=0;entryPerimeter=0;exitX=1;exitY=0;exitDx=0;exitDy=0;" parent="1" target="SBcckLtpFC7jZX_pPXCB-4" edge="1" source="SBcckLtpFC7jZX_pPXCB-1">
          <mxGeometry width="50" height="50" relative="1" as="geometry">
            <mxPoint x="460" y="170" as="sourcePoint" />
            <mxPoint x="510" y="120" as="targetPoint" />
          </mxGeometry>
        </mxCell>
        <mxCell id="SBcckLtpFC7jZX_pPXCB-16" value="" style="endArrow=classic;html=1;rounded=0;entryX=0.383;entryY=0.988;entryDx=0;entryDy=0;entryPerimeter=0;" parent="1" target="SBcckLtpFC7jZX_pPXCB-2" edge="1" source="SBcckLtpFC7jZX_pPXCB-1">
          <mxGeometry width="50" height="50" relative="1" as="geometry">
            <mxPoint x="400" y="170" as="sourcePoint" />
            <mxPoint x="400" y="130" as="targetPoint" />
          </mxGeometry>
        </mxCell>
        <mxCell id="SBcckLtpFC7jZX_pPXCB-18" value="" style="endArrow=classic;html=1;rounded=0;exitX=0;exitY=0;exitDx=0;exitDy=0;" parent="1" source="SBcckLtpFC7jZX_pPXCB-1" target="SBcckLtpFC7jZX_pPXCB-3" edge="1">
          <mxGeometry width="50" height="50" relative="1" as="geometry">
            <mxPoint x="260" y="226" as="sourcePoint" />
            <mxPoint x="269" y="136" as="targetPoint" />
          </mxGeometry>
        </mxCell>
        <mxCell id="SBcckLtpFC7jZX_pPXCB-19" value="" style="endArrow=classic;html=1;rounded=0;exitX=-0.017;exitY=0.633;exitDx=0;exitDy=0;exitPerimeter=0;" parent="1" source="SBcckLtpFC7jZX_pPXCB-1" target="SBcckLtpFC7jZX_pPXCB-5" edge="1">
          <mxGeometry width="50" height="50" relative="1" as="geometry">
            <mxPoint x="270" y="240" as="sourcePoint" />
            <mxPoint x="327" y="188" as="targetPoint" />
          </mxGeometry>
        </mxCell>
        <mxCell id="SBcckLtpFC7jZX_pPXCB-20" value="" style="endArrow=classic;html=1;rounded=0;entryX=0.408;entryY=0.025;entryDx=0;entryDy=0;entryPerimeter=0;exitX=0.417;exitY=1.033;exitDx=0;exitDy=0;exitPerimeter=0;" parent="1" source="SBcckLtpFC7jZX_pPXCB-1" target="SBcckLtpFC7jZX_pPXCB-7" edge="1">
          <mxGeometry width="50" height="50" relative="1" as="geometry">
            <mxPoint x="260" y="270" as="sourcePoint" />
            <mxPoint x="317" y="218" as="targetPoint" />
          </mxGeometry>
        </mxCell>
        <mxCell id="SBcckLtpFC7jZX_pPXCB-21" value="" style="endArrow=classic;html=1;rounded=0;entryX=0;entryY=0.5;entryDx=0;entryDy=0;exitX=1;exitY=0.5;exitDx=0;exitDy=0;" parent="1" source="SBcckLtpFC7jZX_pPXCB-1" target="SBcckLtpFC7jZX_pPXCB-6" edge="1">
          <mxGeometry width="50" height="50" relative="1" as="geometry">
            <mxPoint x="480" y="200" as="sourcePoint" />
            <mxPoint x="537" y="148" as="targetPoint" />
          </mxGeometry>
        </mxCell>
      </root>
    </mxGraphModel>
  </diagram>
</mxfile>
